<svg xmlns="http://www.w3.org/2000/svg" xmlns:xlink="http://www.w3.org/1999/xlink" width="500" zoomAndPan="magnify" viewBox="0 0 375 374.999991" height="500" preserveAspectRatio="xMidYMid meet" version="1.0"><defs><g/><clipPath id="3ea58a4e38"><path d="M 75 0 L 300 0 C 341.421875 0 375 33.578125 375 75 L 375 300 C 375 341.421875 341.421875 375 300 375 L 75 375 C 33.578125 375 0 341.421875 0 300 L 0 75 C 0 33.578125 33.578125 0 75 0 Z M 75 0 " clip-rule="nonzero"/></clipPath><clipPath id="6d0da8481c"><path d="M 0 0 L 375 0 L 375 375 L 0 375 Z M 0 0 " clip-rule="nonzero"/></clipPath><clipPath id="0661cfa67c"><path d="M 75 0 L 300 0 C 341.421875 0 375 33.578125 375 75 L 375 300 C 375 341.421875 341.421875 375 300 375 L 75 375 C 33.578125 375 0 341.421875 0 300 L 0 75 C 0 33.578125 33.578125 0 75 0 Z M 75 0 " clip-rule="nonzero"/></clipPath><clipPath id="89cc0e42ef"><rect x="0" width="375" y="0" height="375"/></clipPath><clipPath id="55c7bb5f37"><rect x="0" width="153" y="0" height="375"/></clipPath></defs><g clip-path="url(#3ea58a4e38)"><g transform="matrix(1, 0, 0, 1, 0, 0)"><g clip-path="url(#89cc0e42ef)"><g clip-path="url(#6d0da8481c)"><g clip-path="url(#0661cfa67c)"><rect x="-82.5" width="540" fill="#2561ac" height="539.999987" y="-82.499998" fill-opacity="1"/></g></g></g></g></g><g transform="matrix(1, 0, 0, 1, 111, 0)"><g clip-path="url(#55c7bb5f37)"><g fill="#ffffff" fill-opacity="1"><g transform="translate(1.145735, 316.265725)"><g><path d="M 94.75 -185.15625 L 94.75 -195.703125 C 94.75 -202.234375 93.050781 -207.820312 89.65625 -212.46875 C 86.269531 -217.113281 81.1875 -219.4375 74.40625 -219.4375 C 71.257812 -219.4375 68.117188 -218.648438 64.984375 -217.078125 C 61.847656 -215.515625 59.242188 -213.003906 57.171875 -209.546875 C 55.097656 -206.097656 54.0625 -201.484375 54.0625 -195.703125 C 54.0625 -189.804688 55.222656 -184.753906 57.546875 -180.546875 C 59.867188 -176.335938 63.132812 -172.410156 67.34375 -168.765625 C 71.550781 -165.128906 76.414062 -161.113281 81.9375 -156.71875 C 90.726562 -149.9375 98.953125 -143.34375 106.609375 -136.9375 C 114.273438 -130.53125 120.992188 -123.75 126.765625 -116.59375 C 132.546875 -109.4375 137.066406 -101.398438 140.328125 -92.484375 C 143.597656 -83.566406 145.234375 -73.144531 145.234375 -61.21875 C 145.234375 -52.425781 143.566406 -44.101562 140.234375 -36.25 C 136.910156 -28.40625 132.203125 -21.4375 126.109375 -15.34375 C 120.015625 -9.257812 112.695312 -4.488281 104.15625 -1.03125 C 95.625 2.414062 86.144531 4.140625 75.71875 4.140625 C 64.414062 4.140625 54.492188 2.289062 45.953125 -1.40625 C 37.421875 -5.113281 30.296875 -10.109375 24.578125 -16.390625 C 18.867188 -22.671875 14.597656 -29.890625 11.765625 -38.046875 C 8.941406 -46.210938 7.53125 -54.691406 7.53125 -63.484375 L 7.53125 -73.46875 C 7.53125 -76.726562 7.9375 -79.046875 8.75 -80.421875 C 9.570312 -81.804688 11.300781 -82.5 13.9375 -82.5 L 48.21875 -82.5 C 50.851562 -82.5 52.578125 -81.929688 53.390625 -80.796875 C 54.210938 -79.671875 54.625 -77.664062 54.625 -74.78125 L 54.625 -66.296875 C 54.625 -60.023438 55.753906 -55.066406 58.015625 -51.421875 C 60.273438 -47.773438 63.066406 -45.195312 66.390625 -43.6875 C 69.722656 -42.1875 72.957031 -41.4375 76.09375 -41.4375 C 82 -41.4375 87.054688 -43.445312 91.265625 -47.46875 C 95.472656 -51.488281 97.578125 -56.953125 97.578125 -63.859375 C 97.578125 -70.003906 96.445312 -75.304688 94.1875 -79.765625 C 91.925781 -84.222656 88.375 -88.710938 83.53125 -93.234375 C 78.695312 -97.753906 72.390625 -103.15625 64.609375 -109.4375 C 54.816406 -117.476562 46.304688 -124.570312 39.078125 -130.71875 C 31.859375 -136.875 25.925781 -142.992188 21.28125 -149.078125 C 16.632812 -155.171875 13.179688 -161.984375 10.921875 -169.515625 C 8.660156 -177.054688 7.53125 -186.226562 7.53125 -197.03125 C 7.53125 -206.820312 8.972656 -215.453125 11.859375 -222.921875 C 14.753906 -230.398438 18.617188 -236.773438 23.453125 -242.046875 C 28.285156 -247.316406 33.648438 -251.613281 39.546875 -254.9375 C 45.453125 -258.269531 51.414062 -260.722656 57.4375 -262.296875 C 63.46875 -263.867188 69.125 -264.65625 74.40625 -264.65625 C 87.46875 -264.65625 99.019531 -261.828125 109.0625 -256.171875 C 119.101562 -250.523438 126.976562 -242.550781 132.6875 -232.25 C 138.40625 -221.957031 141.265625 -209.835938 141.265625 -195.890625 L 141.265625 -185.15625 C 141.265625 -182.519531 140.796875 -180.664062 139.859375 -179.59375 C 138.921875 -178.53125 136.941406 -178 133.921875 -178 L 100.203125 -178 C 97.816406 -178 96.3125 -178.53125 95.6875 -179.59375 C 95.0625 -180.664062 94.75 -182.519531 94.75 -185.15625 Z M 94.75 -185.15625 "/></g></g></g></g></g></svg>